/* XPM */
static char *_4755157cc804111ce7665a1d054cd7a9qGjWACn3D4WLKan[] = {
/* columns rows colors chars-per-pixel */
"50 50 178 2 ",
"   c #282B15",
".  c #2B281D",
"X  c #35362F",
"o  c #3B382E",
"O  c #363632",
"+  c #383735",
"@  c #373834",
"#  c #3B3A36",
"$  c #373938",
"%  c #3C3B39",
"&  c #473713",
"*  c #463E2F",
"=  c #503F23",
"-  c #403E37",
";  c #413D3A",
":  c #484813",
">  c #5E4C1F",
",  c #6C4909",
"<  c #7E510A",
"1  c #664D16",
"2  c #6A4D16",
"3  c #6A681D",
"4  c #4E462A",
"5  c #5A4E2F",
"6  c #4E4C32",
"7  c #43413D",
"8  c #4A453F",
"9  c #504B3C",
"0  c #575234",
"q  c #464441",
"w  c #494643",
"e  c #4D4944",
"r  c #4C4B49",
"t  c #514C45",
"y  c #524E4A",
"u  c #55514C",
"i  c #59544E",
"p  c #5E5F4F",
"a  c #565450",
"s  c #5A5651",
"d  c #5E5A53",
"f  c #665E44",
"g  c #625C56",
"h  c #635D59",
"j  c #767145",
"k  c #626057",
"l  c #64615C",
"z  c #69635D",
"x  c #766651",
"c  c #6C6661",
"v  c #6F6963",
"b  c #706760",
"n  c #736B65",
"m  c #756E69",
"M  c #75716B",
"N  c #7B746B",
"B  c #7D746D",
"V  c #7E7670",
"C  c #7E7972",
"Z  c #805100",
"A  c #966308",
"S  c #BE7B02",
"D  c #A9721A",
"F  c #896B23",
"G  c #C17B01",
"H  c #81766E",
"J  c #81786F",
"K  c #817671",
"L  c #847B74",
"P  c #897E76",
"I  c #877E78",
"U  c #897F78",
"Y  c #B4832F",
"T  c #C58B07",
"R  c #C58D0E",
"E  c #C0891F",
"W  c #E49F02",
"Q  c #E6A409",
"!  c #F3AD0A",
"~  c #FEB501",
"^  c #FCB50A",
"/  c #E7A411",
"(  c #E7B01E",
")  c #FEBF16",
"_  c #E1A920",
"`  c #EFBF21",
"'  c #F9C924",
"]  c #FFC233",
"[  c #FFC73F",
"{  c #FCD937",
"}  c #908E64",
"|  c #898176",
" . c #808079",
".. c #8D837C",
"X. c #91867D",
"o. c #91887F",
"O. c #E1BF46",
"+. c #D3C55E",
"@. c #F3CD41",
"#. c #F0C357",
"$. c #FADB5B",
"%. c #F9E04C",
"&. c #FEEC5B",
"*. c #D5CA70",
"=. c #E6DC76",
"-. c #FCEC63",
";. c #F4EB6F",
":. c #FCEC6B",
">. c #F9EB79",
",. c #8D8781",
"<. c #8F8881",
"1. c #938780",
"2. c #948A82",
"3. c #9A8E86",
"4. c #978F89",
"5. c #9A8F88",
"6. c #9A9087",
"7. c #9D928A",
"8. c #A1958D",
"9. c #A5998E",
"0. c #A49790",
"q. c #A69A91",
"w. c #AA9D93",
"e. c #AEA096",
"r. c #B1A397",
"t. c #B3A59B",
"y. c #B6A89E",
"u. c #B8AA9F",
"i. c #B7A9A0",
"p. c #B9ABA0",
"a. c #BAACA2",
"s. c #BDAEA3",
"d. c #BAADA4",
"f. c #BDAEA4",
"g. c #BEAFA4",
"h. c #BEB1A4",
"j. c #BEB0A5",
"k. c #BFB1A8",
"l. c #C0AFA5",
"z. c #C0B1A7",
"x. c #C3B3A9",
"c. c #C3B4AA",
"v. c #C3B5AA",
"b. c #C8B7AF",
"n. c #C7B8AE",
"m. c #C9B9AF",
"M. c #C7B9B0",
"N. c #C9BBB1",
"B. c #CCBCB2",
"V. c #E1D095",
"C. c #FAEE88",
"Z. c #FEF081",
"A. c #F9F28D",
"S. c #F7EB9D",
"D. c #CFC0B5",
"F. c #CFC2B8",
"G. c #D1C1B6",
"H. c #D4C3BB",
"J. c #D8C6BC",
"K. c #F8EDA9",
"L. c #FBF6A5",
"P. c #FEF4AE",
"I. c #E9E5BE",
"U. c #FAE8BB",
"Y. c #FFF9B3",
"T. c #D9C8C0",
"R. c #D9DAC1",
"E. c #F5EBC9",
"W. c #FFF4C1",
"Q. c #FFFEC7",
"!. c #FCF5CB",
"~. c #FEFBCB",
"^. c #FEF8D5",
"/. c #EDEDEA",
"(. c #FDFDE5",
"). c #FEFEEA",
"_. c #FFFFF7",
"`. c #FEFEFA",
/* pixels */
"s.j.j.j.z.k.w.3.l w.v.j.a.w.w.1.B B i w.g.e.q.p.j.j.j.j.j.j.j.N.3.8 6.q.j.z.p.y.H B l 3.y.a.w.w.e.j.",
"j.s.a.j.j.y.i.3.e 1.a.g.w.q.q.H B B 1.w.g.q.r.z.y.j.j.j.j.j.j.z.B.2.v 1.B B ..B B N 7 w.n.w.w.e.j.j.",
"j.j.j.j.j.x.L H g h 3.B B 1.3.3.B # 7.q.N.e.j.j.j.j.r.j.j.j.j.s.N.3.# h V V C V n @ w.w.g.e.e.j.j.j.",
"g.j.j.j.g.n.B V ; c ; q 7 8 N s q O q.a.p.j.j.j.j.j.j.j.j.j.p.w.g.5.7 o.| o.o.1...# 7.7.y.r.j.j.j.j.",
"j.j.j.j.p.X.V w 7.8.3.1.q.w.5.6...+ 7.x.t.j.g.j.j.j.j.j.j.g.e.9.B i o.y.m.m.m.n.e.,.y 3.t.s.j.j.s.j.",
"j.p.s.t.P B s d a.p.9.t.p.v.N.z.8.V L r.v.g.j.j.j.j.j.j.j.e.9.L n h y.N.w.e.j.p.B.e.u ..t.x.j.j.j.j.",
"g.y.w.P B m % e.t.w.y.y.q.e.y.z.B.3.t 3.v.z.j.j.j.j.g.j.w.w.P B # 8.B.w.w.r.j.z.j.v.7.y 3.g.j.a.j.j.",
"w.w.q.H B g y G.w.e.w.w.q.s.j.s.x.3.4.n e.j.j.j.j.j.j.e.w.w.B v ..B.y.q.p.l.j.j.j.j.J.e N 3.F.z.g.p.",
"w.e.8.B B 7 e.w.w.w.w.w.g.j.j.j.j.G.3.d 6.j.j.g.g.3.r.w.w.8.B e q.a.q.r.a.z.j.j.j.s.n.7.7 5.7.x.r.w.",
"w.7.H B n h r.q.w.w.w.u.j.j.j.j.j.j.q.I s 3.t.N.w.J 8.w.q.L z ..G.w.w.g.u.j.j.j.j.j.j.g.l z 5.3.a.y.",
"B B V B y 7.t.w.w.w.t.j.j.j.j.a.a.p.B.1.y s L L z n 3...H N n w.B.w.g.j.j.j.j.j.j.j.y.G.8.u M 3.L B ",
"n v b i + 8.i.w.i.r.j.j.j.j.j.j.j.s.k.B d q t u i e y y # # b w.y.w.j.j.j.j.z.j.j.j.z.s.t.1.# L n b ",
"# w ..7.t l 7.g.w.j.j.j.j.a.j.j.g.w.P V s w.p.G.N.8.4.1.w.0.h 7.a.j.j.j.j.j.j.y.a.j.t.q.9.B + y m w ",
"7.q.w.n.3.v 3.8.v.j.j.j.j.j.j.g.w.w.L n z B.e.t.w.p.k.y.p.7.B 7.y.j.j.j.j.j.j.j.j.e.q.w.8.n l w.q.7.",
"x.v.g.z.g.1.i 3.k.x.j.j.j.j.a.w.w.7.B y 1.n.q.w.w.e.a.j.v.t.3.z 3.z.j.j.j.p.g.g.e.w.w.q.H h w.n.p.y.",
"q.t.j.u.B.7.P C 3.n.a.u.j.a.w.w.q.B n 7 w.N.r.w.y.g.a.j.j.y.3.....y.z.s.s.j.p.w.w.w.4.B h 3.g.q.w.w.",
"y.j.j.v.g.k.3.q 1.p.z.j.p.y.w.w.L B q L p.w.e.j.j.j.j.j.j.B.7.3.8 3.g.g.j.p.w.w.w.4.B N L y.w.w.w.w.",
"j.j.j.j.g.n.6.3.u 3.p.n.q.w.e.e.B n # q.v.a.l.z.s.u.j.j.g.j.G.3.3.L 3.3.0.J.q.B B B V u q.p.w.w.q.j.",
"j.j.t.j.j.j.y.5.u c 3.7.w.X.P B N # 1.j.g.l.g.j.j.j.j.j.z.j.j.x.7.M L 6.3...B B B V s 3.w.p.y.q.g.j.",
"j.j.j.j.j.g.g.3.z # w m 3.B n u % @ q.g.2.d d d d | z.j.j.j.j.y.e.3.q r d c s y w # @ 3.w.g.e.g.j.j.",
"j.j.j.j.j.g...B i z ..n z h l P 0.e X . j I./.E.=.} .   j.j.t.w.w.B 7 e 4.w.w.w.w.3.s 4.w.x.a.j.j.j.",
"j.j.j.j.a.7.B M 2.e.w.7.3.q.y.e.C t R.~.P.`.(.:.Y._.;.-.4 6 L ..c N q w.t.N.D.G.H.z.5.n 3.e.v.j.j.j.",
"j.j.j.y.w.H B # w.y.w.w.B.B.j. .M K.C.K.).Q.&.S.`.^.:.&.&.&.3 : 0 l B s.q.r.w.t.p.v.p.o.U 3.H.j.g.j.",
"j.j.w.w.X.B c w.x.w.w.w.j.l.g.l !.#.>.`.).A.~.(.A.:.&.&.&.&.&.&.:.+.f k.w.w.w.g.j.j.v.q.n 6.q.x.g.p.",
"i.w.w.3.B m y w.N.w.w.p.j.s.j.5 ] ~ ) [ $.P._.(.-.-.&.&.&.&.&.-.Z.~.*.p w.e.s.j.j.j.t.B.1.N 3.y.B.j.",
"r.q...B B u 8.w.y.w.t.j.j.j.# E.~ ~ ~ ~ ^ ^ ^ $.U.!.A.Z.:.Z.Z.!.S.( / * w.p.j.j.j.j.x.j.y.L 3.3.w.x.",
"U V V n d a w.G.w.w.j.j.y.z.- K.~ ~ ~ ~ ~ ~ ~ ^ ~ ' P.~.L.W.U.@./ S S > 2.l.j.j.p.z.j.j.B.3.u 3.3.3.",
"..g @ + $ z t.y.e.y.j.j.j.j.# %.~ ^ ~ ~ ~ ~ ~ ~ ~ ~ ~ ` V.T S S S S G T o l.j.j.j.j.j.j.j.3.C # O n ",
"1.1.7.q.L z e.w.t.j.p.j.j.s.9.6 4 Y ! ^ ~ ~ ~ ~ ~ ~ ~ ^ O.S S S S G S R X l.j.s.j.j.j.w.t.3.V 3.o.P ",
"s.n.d.n.3.L 7.v.g.j.j.j.j.j.g.t.w.o . & E _ ! ! ~ ~ ^ &.S S S S D D = 9 j.j.j.j.s.g.r.w.o.N g b.y.a.",
"w.y.y.z.y.6.b 8.x.g.s.j.j.j.y.w.9.1.K k e i < Z R W Q { S A < , y k 7.j.g.j.j.j.j.y.q.t.L g 0.G.w.w.",
"r.j.j.g.m.8.X.P q.z.j.j.j.w.w.w.P B n w w.t.n n f 1 2 F 2 x z v s j.z.j.s.j.j.j.t.w.w...B q w.J.e.e.",
"j.j.j.j.g.p.6.g 2.8.m.j.x.w.w.w.B B q 1.w.N.w.i.j.l.l.l.l.j.x.3.1...a.g.j.j.j.p.w.w.e.B u z q.T.w.r.",
"j.j.j.j.j.z.e.5.s 3.7.N.w.w.w.8.B N B w.u.r.w.j.j.g.j.j.j.a.z.k.5.h 7.n.j.v.g.w.w.8.V V s w.t.e.w.s.",
"j.j.j.t.j.a.x.3.n B 3.7.r.p.q...B 7 q.p.y.w.g.j.j.j.j.j.j.j.j.y.B q L 9.v.n.g.r.2.B B i 5.e.x.w.y.j.",
"j.j.j.j.s.w.g.1.4.7 L ..B B V N a 7.w.g.w.y.y.j.z.j.j.j.j.j.y.8.B q y 1.B B B B B B B ..y.v.w.g.z.j.",
"g.j.j.g.e.q.H B n q w e t i i e % 4.w.p.r.g.a.j.j.j.s.j.j.p.q.8.B q q b 1.b N K b u w <.x.w.y.j.j.j.",
"j.j.j.w.7.B B B 7 w.w.w.w.q.7.3.1.u w.y.z.z.x.j.j.j.j.j.p.q.w.8.B % C w.w.q.w.q.q.w.3.e 5.B.x.a.j.j.",
"j.j.e.o.K B N 7 6.y.x.e.r.t.v.v.q.X...8.n.j.j.j.j.j.j.j.e.w.w.L y # q.g.x.u.t.t.y.N.7.1.n q.B.z.j.j.",
"j.y.w.L B b # n w.x.q.w.w.u.j.j.n.3.v ..7.a.j.j.j.g.y.e.w.9.P n + V s.p.w.w.w.w.p.x.B.7.n B r.x.t.z.",
"y.r.q.H V e v w.n.w.w.w.q.g.j.j.z.6.6.z 5.6.B.l.s.p.y.w.w...B u % 9.x.w.w.w.w.a.j.j.j.y.3.z w.B.j.j.",
"r.e.g.B z l w.n.y.w.w.w.w.j.j.s.z.n.3.M d 3.7.n.g.t.i.t.q.H n % w.B.w.w.w.w.a.g.s.j.j.B.7.B q.q.v.g.",
"G.X.B B u 0.t.q.w.w.w.q.j.j.j.j.j.j.9.3.s L 6.3.3.3.3.3.3.H q 7.w.t.w.w.w.j.j.j.j.j.j.g.t.3.g w.q.F.",
"H B B V e 8.t.w.y.w.w.w.g.j.j.j.j.j.v.3.n # r w i N 1.6.2.g s 7.N.w.w.q.s.j.j.j.j.j.g.s.r.3...6.3.6.",
"n l e + # 1.8.y.q.w.w.y.j.j.j.j.j.p.t.3.B % B 3.L m B B U L g 3.g.e.e.p.j.j.j.y.z.j.z.z.t.1.P + l N ",
"w.e.8.7.1.h 3.v.w.w.w.j.j.j.j.j.g.r.w.X.c v w.i.e.7.w.w.w.7.P ..3.j.u.j.j.j.j.s.j.j.s.e.X.B n w.w.w.",
"B.m.D.q.5.B s 5.e.w.t.j.j.j.j.j.t.q.L B d w.B.r.m.x.G.H.H.e.3.B 6.8.n.g.j.j.j.j.j.a.w.L V z w.w.z.B.",
"w.e.j.n.n.6.M ,.v.w.t.j.j.g.y.y.w.H B b 6.w.M.w.w.t.g.g.j.B.w.X.; 6.x.z.g.j.j.j.a.w...B i w.w.J.q.w.",
"e.j.j.j.m.t.3.; 3.i.j.j.j.j.u.w...B B P w.t.w.w.e.j.j.j.j.z.x.3.+ I 8.N.j.g.j.p.e.7.B z ..q.B.w.w.w.",
"g.j.j.j.j.b.3.3.I j.g.g.x.g.y.q.B B N 1.w.N.q.w.s.j.j.j.j.p.n.3.l h 3.z.g.j.y.w.e.B H h w.n.r.w.w.r."
};
