/* XPM */
static char *doorExit_1__resized1709660433[] = {
/* columns rows colors chars-per-pixel */
"50 50 224 2 ",
"   c #0E090E",
".  c #1D110B",
"X  c #130B13",
"o  c #190C17",
"O  c #1B0F1B",
"+  c #1D111D",
"@  c #26100F",
"#  c #220F1E",
"$  c #22101F",
"%  c #1F1322",
"&  c #220F21",
"*  c #231222",
"=  c #291425",
"-  c #271C2A",
";  c #291B2A",
":  c #351729",
">  c #3B172B",
",  c #3B192C",
"<  c #351B35",
"1  c #3A1A34",
"2  c #391A37",
"3  c #2D2131",
"4  c #342534",
"5  c #372439",
"6  c #3C243B",
"7  c #3D283C",
"8  c #373433",
"9  c #431C2C",
"0  c #431C35",
"q  c #481C36",
"w  c #541F36",
"e  c #49222B",
"r  c #59282B",
"t  c #5D3729",
"y  c #4D2136",
"u  c #46253B",
"i  c #542336",
"p  c #5A2836",
"a  c #5A2C3C",
"s  c #603D25",
"d  c #66293A",
"f  c #652D3A",
"g  c #6B2C3C",
"h  c #722C3D",
"j  c #6C323D",
"k  c #6E383F",
"l  c #76363A",
"z  c #73343C",
"x  c #7C353E",
"c  c #43423E",
"v  c #4A473F",
"b  c #76423A",
"n  c #3D2340",
"m  c #422542",
"M  c #432B44",
"N  c #4C2844",
"B  c #4A2D4A",
"V  c #5B2A47",
"C  c #4D304D",
"Z  c #4F3C4A",
"A  c #55364B",
"S  c #4F3352",
"D  c #543655",
"F  c #553956",
"G  c #593A56",
"H  c #5C3C5C",
"J  c #6B2941",
"K  c #642D48",
"L  c #69334A",
"P  c #743342",
"I  c #7C3341",
"U  c #7C3B43",
"Y  c #743A4C",
"T  c #7C394A",
"R  c #643C53",
"E  c #603E5F",
"W  c #723E52",
"Q  c #5F3E61",
"!  c #603E61",
"~  c #464442",
"^  c #494542",
"/  c #4E4B47",
"(  c #514A47",
")  c #524E4A",
"_  c #57534D",
"`  c #5E4459",
"'  c #575450",
"]  c #5A5652",
"[  c #5E5953",
"{  c #61474E",
"}  c #7B4449",
"|  c #67465A",
" . c #754154",
".. c #724B5A",
"X. c #7D4B5D",
"o. c #645C58",
"O. c #645D59",
"+. c #77535A",
"@. c #66625B",
"#. c #69645E",
"$. c #644362",
"%. c #6B4563",
"&. c #6B4867",
"*. c #764C65",
"=. c #6E5664",
"-. c #785969",
";. c #7F5C72",
":. c #6D6661",
">. c #6E6963",
",. c #736B65",
"<. c #786869",
"1. c #7B746C",
"2. c #7D746D",
"3. c #7F6672",
"4. c #7E7772",
"5. c #853C3D",
"6. c #883C3D",
"7. c #8C453F",
"8. c #9B523F",
"9. c #AA643C",
"0. c #843C42",
"q. c #8B3D43",
"w. c #883844",
"e. c #913F44",
"r. c #8E4144",
"t. c #894548",
"y. c #944144",
"u. c #9C4545",
"i. c #944B43",
"p. c #94454A",
"a. c #9C4448",
"s. c #9A4948",
"d. c #965442",
"f. c #99535A",
"g. c #A14646",
"h. c #A34A45",
"j. c #A14548",
"k. c #A34B4C",
"l. c #A75746",
"z. c #A2545E",
"x. c #996444",
"c. c #AA6747",
"v. c #AF7452",
"b. c #855769",
"n. c #8E5968",
"m. c #895E72",
"M. c #88646A",
"N. c #986C6E",
"B. c #80776F",
"V. c #81786F",
"C. c #8B6472",
"Z. c #876A75",
"A. c #966B76",
"S. c #827571",
"D. c #847B74",
"F. c #877B77",
"G. c #8C737F",
"H. c #8B7C7B",
"J. c #977679",
"K. c #9E7C7C",
"L. c #A47B7A",
"P. c #BC8957",
"I. c #868079",
"U. c #8C837B",
"Y. c #91857E",
"T. c #958A7F",
"R. c #A5837E",
"E. c #AD847E",
"W. c #B3897E",
"Q. c #8C7280",
"!. c #927481",
"~. c #967C85",
"^. c #A47D82",
"/. c #958682",
"(. c #958B83",
"). c #998E85",
"_. c #9B848A",
"`. c #979086",
"'. c #9B9087",
"]. c #9D928A",
"[. c #AB8585",
"{. c #AC8A85",
"}. c #A5888A",
"|. c #AD8A8B",
" X c #B78880",
".X c #B38C85",
"XX c #B38D8B",
"oX c #A2958C",
"OX c #A9918A",
"+X c #A4988F",
"@X c #B4928B",
"#X c #BA968A",
"$X c #A78C93",
"%X c #B28E90",
"&X c #A69A91",
"*X c #A99C93",
"=X c #AA9A94",
"-X c #B89691",
";X c #B59A93",
":X c #B89896",
">X c #BB9C94",
",X c #AEA196",
"<X c #AFA298",
"1X c #B0A297",
"2X c #BEA197",
"3X c #B2A49A",
"4X c #BBA39C",
"5X c #B6A89E",
"6X c #B8AA9F",
"7X c #BBA3A0",
"8X c #BBADA3",
"9X c #BEB0A5",
"0X c #C1A29A",
"qX c #C5ACA3",
"wX c #C0B2A7",
"eX c #CBB3A7",
"rX c #C3B4AA",
"tX c #C6B8AE",
"yX c #CDB9AB",
"uX c #C8B3B3",
"iX c #CCBCB2",
"pX c #CFC1B6",
"aX c #D1C2B7",
"sX c #D3C3B9",
/* pixels */
"9X9X9X8X8X3XiXD.@.<XiX9X9X3X=XU.4.2.>.'.aX,X*XqX9X9XwXqXwX8XwXwXF.#.'.3XyX3X&XT.V.B.( U.*X*X*X*X*X8X",
"9X8X,X9X8X5XtX(.`.(.<X8X<X*X].U.V.4.+X@X>XeXyXyXyXyXyXyXyXeX#X#XOX2.[ I.4.2.2.2.B.1.U.+XpX3X+X*X9X9X",
"9X9X9X9X8X8X).D.,.] D.<.1.D.(.(.}.qX>XeXyXyXyXyXyXyXeXyXyXeXyXyXqXJ.( [ V.B.B.4.1./ I.*XrX3X,X9X9X9X",
"9X9X9X9XwX3XB.#.^ ^ ^ ^ ^ O.<.[.@XqX0XeXyXyXyXiXyXyXyXyXyXyXyXyXyXqX>X{.Y.(.oX+X@.c U.&X+X*X6X9X9X9X",
"9X6X9X9X9X8X1.>.F.=X`.].|.%X@X@X;X0X4X4X7X7X7X7X7X7X7X7X4X4X7X7X7XqXuX:X@XXX8X8X&X/.I.(.,X8X9X9X9X9X",
"9X,X8X7X).1.O.:.9X8X].|.@X@X-XXX;XA.%.H H H $.Q Q Q Q ! | ! Q Q %.Z.0X0X-X@XXX2XtX5X[ 4.9XrX9X9X9X9X",
"5X6X=X(.4.:./ oX9X=X@XXX-X>X:X|.=.! ! S F F ` Q H ! ! E Q H E H H ! &.!.%X{.XX@X2XtXF.2.(.9X9X8X9X9X",
"*X*X&X1.2.,.:.*X=X;X-XXX%X}.m.%.Q Q H S F H H H H H F H H H H H H ! ! H %.C.{.@X@X5X3X[ 4.`.<X3X8X6X",
"*X*X'.2.1.#.].<X*X-X@X^.-.E E E H B 6 6 5 5 5 2 4 5 5 5 5 5 5 5 M ` H $.H $.C.XX#X5XpXI.>.Y.`.7X1X*X",
"(.(.D.2.,.O.*X*X*X[.K.m.$.E E E B = O   O O O o O O O % % X   O * M Q H E E %.!.@X5X9X5X>.>.(.`.T.'.",
"2.2.2.1.@.Y.*X=XOXZ.%.H Q H Q ` < > 0 o 2 0 0 0 2 6 0 q N , O 0 , - F E E ! $.$.~.8X9XsX+X#.>.(.2.B.",
"[ [ [ _ / ].&X=X}.m.! ! Q ` D 7 u g h 9 d I x w.P J z T h g : g g u 7 D ! E $.$.~.8X9XrX].U.~ @.[ [ ",
"#.,.>.#.#.>.].+X*X!.Q Q Q H 7 , j y.u.g 0.g.6.g.p.} s.u.y.q.p q.e.P , 5 H ! E E _.9X7X,XU.2.c #.#.#.",
"'.*XrX5X*X:.1.+X7X_.$.H H M < q x r.e.i x e.6.y.p.} g.h.s.q.i 0.p.q.i = 7 H E H ~.3X,X9XU.@.,.+X9X'.",
"8X*XtXiXtX(.4.]./...&.H F 3 4 -.L.R.n.N.R.E.[.[.XX[.W.W.W.[.J.[.L.z.L : ; D $.%.| U.+X&XI.4.+X<X9X+X",
"8X5X8X8XrX'.I.>.D.` C M m * 7 m.|.>X[.>X2X2X2X4X>X>X2X2X0X;XL.L.!.A.| = & m N B A U.(.4.[ `.9X<X*X*X",
"5X9X9X9X9X8XY.,.,.;.S S B % n C.|.K.{.@X@X@X@XJ.uXXX@X@X@X.XL.[.$Xb.G & = B S C =.F.S.@.2.9X8X,X*X*X",
"9X9X9X9X9X9X'.4.] Z.! ! F - 7 *.C.L.A.{.@X>X@XR.2X@X@X@X@X@X{.A.!.*.C & ; D Q Q 3.4.2.U.+X3X*X*X*X5X",
"9X9XrX9X9X9X8XY.,.` ! ! F ; O w L W L *. . . . . .W  .W  . .W L L V 1 % ; S H Q >.4._ Y.*X+X6X<X5X8X",
"9X9XwX9X9X9X6X).1.Z Q Q F ;   = 2 > 0 N 1 1 1 > 1 > > 1 , > < 1 > > < % ; C D ! ( / 8 U.*X*X8X8XwXwX",
"9X9X9X9X9X3XD.D.H.Z.Q H D ; # q g U J 1 f z z U a P x x z j y z x z a * - D H $.G.H./ I.&XrX9X<X6X9X",
"9X5X9X9X8X+X2.V./.G.Q Q D ; $ i w.q.q.J 5.s.0.u.U U u.u.0.0.d r.a.p.I : - D $.$._.oX(.`.].+X8X8XwXwX",
"9X8X9X6X&X2.>.O.<X$XQ Q D ; # f p.u.u.J q.g.a.g.U U u.u.0.q.g a.g.g.w.: - F ! E _.8XoX(.(.'.iX9X9X9X",
"9X9X,X*X].2.D.oX=XQ.! E D ; # g q.y.g.g y.g.u.g.p.p.k.u.u.0.h 9.g.g.q.: 3 H E E _.9X9X&X] U.'.8XwX8X",
"9X3X*X3X2.:._ =X=XQ.! E D ; # w I a.g.g 8.h.g.g.p.f.j.g.u.e.P l.g.g.w.> ; D ! E _.9X9XaX&X`.'.aXrX9X",
"<XaX1.1.2.I.&X5X8X;.Q E H 5 = i d w.j.0.l.g.g.g.f.p.u.w.0.q.g q.6.6.w.: ; D Q ! ~.8X9X8XoX^ U.`.'.sX",
"V.2.1.1.>.) *X<XS.A &.$.H ; $ w I e.g.h 8.h.h.g.p.p.0.XXXXXXXXXX.XN.9   ; D H *.A H.9X9XpX&XU.(.T.'.",
"(.2.c ^ c ) 5XtX*X3.n M 5 O $ g a.j.g.7.c.h.g.g.t.p.} b.b.m.m.n.b.X.p X + < < < D.9X9X8XiX&Xc c c (.",
"1.*X<X<X(.[ &X,X1X_.&.$.G ; # f y.u.k.6.c.h.h.g.T t.0.X.u _.eX;XG a P > ; F H Q _.wX8X*X+X).) =X+X].",
"&X*XsXiX`.(.'.tX8X_.$.! D ; $ j 0.y.g.5.c.h.g.g.y d.q.b.-.b.J.K.{ *.P , - D ! ! _.8X3X3XD.1.].aXiX'.",
"*X<X9X8X<XU.,.+X4X~.E E D ; $ f 0.y.g.5.c.h.g.k.a x.i.G 1 <.Y.M.u i Y : - F ` ! _.,X*X8XI.O.].rX*X*X",
"<X9X9X8X8X=X(.`.oX~.H H D ; # f 6.p.l.g d.g.g.s.T c.g.E A -.1 ` ~.R T , - F Q H ~.*X*XH.1.' '.aX*X<X",
"9X9X9X8XrXtX).(.D.Z.F S S ; * f r.s.u.J 0.a.g.g.0.c.a.W OXZ.R -.0XL.U : - F ! E G.*X+XD.[ I.&XtX*X,X",
"9X9X9X9X9X8X*XD.>.3.H F F - o f p.j.g.J P p.g.g.p.v.g.U M.A.b.M.J.f.w.> ; F ! E G.oXD.>.O.'.8X*X1X9X",
"9X9X9X9X8X8XtX'.U.=.Q Q F -   t g.g.u.J d w.a.g.p.P.a.a.a +.<.+.e x w.> 3 H ! E S.D.2.,.'.8XtX3X9XwX",
"9X9X9X9X8X3X9XU.2.` Q Q F -   r y.e.u.g P 0.a.g.p.P.g.u.t.y , i j h.q.y 4 D E E <.2.#.(.7XwX1X8X8X9X",
"tX9X9X8X3X*X].2.,.| ! ! F - o p a.q.y.x q.6.g.k.p.P.g.6.y.0.i P y.l.d.e ; F ! ! 2.Y.O.Y.9X,X,X9X9X9X",
"tX9X9X,XT.U.2.,.@.=.! ! D ; + p e.r.a.7.i.y.k.k.s.v.g.5.P y.d I y.s.7.> - F ! ! _.5XU.,.(.8X8X9X9X9X",
"9X9X<XY.4.V.,.O.F.Q.$.$.F ; # q h 0.7.l 8.s.i.e.P c.u.y.I e.i q.7.6.5.9 - F Q Q $X9X+X1.@.*XtXrX9X9X",
"9X3X+X2.2.,.] 4.~.=.&.` C % a M.A.L.E.L.W..XE.E.K.#XW. X[.E.J.E.E.L.+.* % B H &.=.oX9X].1.(.8X9X3X9X",
"3X*X+X4.,.[ H.=X/.6 N m 2 O Z C.|.2X2X0X2X0X0X2X2X2X2X2X2X2X;XL.{.XX..& O 2 m N 2 Q.tX,X].#.].pX6X9X",
"*X*XwX4.,.) 3XtXoX=.S C B * u *.m.[.XXXXXX@X@X@XZ.@X@X@X@X-X@XC.{ m.R * = B C S | oX9XtX].4.].5XwX,X",
"D.U.(.1.,.(.<X8X&XQ.Q E D ; 7 *.b.^.A.[.@X@X@X@X).@X.X@X>X{.N.n...b.V * ; D E E !.7X9XrX+X`.].,X&XoX",
"B.S.4.,.) ].<X9X8XQ.Q Q F ; 1 K L W L Y W  . . . .W  .X.X.W K L K K N & ; D E E _.9X<X8X].`.I.`.).'.",
"( v ^ c / '.*XiX*XG.! E D ; = u 1 1 2 < < < < < , 2 7 u 4 , < 1 2 < < * ; D E E ).9X8X8X*X'.(.) ) [ ",
"T.(.I.F.<._ ].=X=XG.! E D ; - } u.6.e.0 b l l l z t.U P l f 0 k j z p # ; D E E _.9X6X9XY.D.,X(.(.(.",
"*X*XiXoX).1.] =XrXQ.E E G 4 , x.9.9.8.: t t t s r 8.l.c.c.7.: : t t e * ; D E E ~.3X,XU.4./ '.*XiXsX",
"*X*XwXwXtX).1.O.F.G E E ` 3   . @ . @ _ T.T.oXoX(.. . . . . ; 1.) Y.O.+ ; G E ! G H.U.4./ U.*XiX<X,X",
"*X8X9X9XwXtX'.(.*X4.X   X % =.oXD.1.,.].*X5X*X*X*X3X3X3XoX6XwXV.8 O.,X9X#.X X X :.H.2.^ U.=XiX<X&X*X",
"wXwX9X9XwXrX'.2.] *X8X<X<X5X*XY.V.2.4.].*XpX<X*X8X9X9X9X6X,X6X'.2.] '.*X8X8X*X&XU.S.2.'.,XyX,X*X*X*X"
};
