/* XPM */
static char *_8b97f7f54d944d0ef30711a6278a862SVfavCE2C8kl7QMm[] = {
/* columns rows colors chars-per-pixel */
"50 50 216 2 ",
"   c #080603",
".  c #051905",
"X  c #12130E",
"o  c #181C0D",
"O  c #0E1A10",
"+  c #151E13",
"@  c #191A15",
"#  c #33170C",
"$  c #0C260F",
"%  c #152112",
"&  c #182B19",
"*  c #1C321F",
"=  c #193B21",
"-  c #272824",
";  c #322D2C",
":  c #223823",
">  c #35322E",
",  c #3A392D",
"<  c #353A32",
"1  c #3B3A36",
"2  c #3A3A37",
"3  c #522516",
"4  c #652B18",
"5  c #423E3A",
"6  c #134B1E",
"7  c #384617",
"8  c #184221",
"9  c #1C5929",
"0  c #27452B",
"q  c #2A432C",
"w  c #274A2B",
"e  c #22562D",
"r  c #365128",
"t  c #2C4F32",
"y  c #384536",
"u  c #2B5333",
"i  c #265B33",
"p  c #2A5B36",
"a  c #315335",
"s  c #345A39",
"d  c #1C652E",
"f  c #2A6838",
"g  c #32633B",
"h  c #3B643C",
"j  c #336B3D",
"k  c #2F723D",
"l  c #31773D",
"z  c #565B19",
"x  c #5C601B",
"c  c #6F751F",
"v  c #50552C",
"b  c #44433E",
"n  c #49433D",
"m  c #456B38",
"M  c #506E32",
"N  c #54753E",
"B  c #696E2E",
"V  c #697426",
"C  c #737523",
"Z  c #777921",
"A  c #3A6742",
"S  c #3E6E44",
"D  c #357443",
"F  c #3A7445",
"G  c #347C44",
"H  c #3A7C4A",
"J  c #464442",
"K  c #494542",
"L  c #4C4A44",
"P  c #4E4D49",
"I  c #514E46",
"U  c #524E4B",
"Y  c #425242",
"T  c #495949",
"R  c #525047",
"E  c #54524C",
"W  c #5B554F",
"Q  c #5B5651",
"!  c #595854",
"~  c #5D5954",
"^  c #605F42",
"/  c #635C55",
"(  c #655E59",
")  c #466949",
"_  c #407146",
"`  c #43734A",
"'  c #407E4A",
"]  c #676748",
"[  c #757D45",
"{  c #65615B",
"}  c #69635D",
"|  c #6C6C5F",
" . c #6C6761",
".. c #6E6A62",
"X. c #736C65",
"o. c #756F69",
"O. c #6F7367",
"+. c #737364",
"@. c #77726C",
"#. c #7D746D",
"$. c #7E7770",
"%. c #7F7972",
"&. c #833418",
"*. c #923919",
"=. c #B8431A",
"-. c #854623",
";. c #AE4620",
":. c #B54520",
">. c #80766E",
",. c #837C6E",
"<. c #847B74",
"1. c #857C75",
"2. c #887E76",
"3. c #54873E",
"4. c #6B8A33",
"5. c #3A8449",
"6. c #3C8C4E",
"7. c #3B934E",
"8. c #3F8B55",
"9. c #3D9653",
"0. c #41894E",
"q. c #448251",
"w. c #428C52",
"e. c #429453",
"r. c #419A55",
"t. c #449D5A",
"y. c #4A985B",
"u. c #6C8944",
"i. c #688848",
"p. c #43A45A",
"a. c #47A75D",
"s. c #58A952",
"d. c #5BB257",
"f. c #71B150",
"g. c #539663",
"h. c #76907A",
"j. c #48A860",
"k. c #979D2E",
"l. c #8B8F38",
"z. c #8B9938",
"x. c #96A028",
"c. c #8CAD3D",
"v. c #9BA739",
"b. c #A6AC34",
"n. c #ADB935",
"m. c #ABB43D",
"M. c #B4BB39",
"N. c #BDC43A",
"B. c #C4C53C",
"V. c #C6C83D",
"C. c #DADC3E",
"Z. c #E5E53F",
"A. c #889642",
"S. c #86AA48",
"D. c #8AB548",
"F. c #A0A841",
"G. c #BCBE48",
"H. c #888075",
"J. c #858179",
"K. c #8C837B",
"L. c #91867E",
"P. c #92887E",
"I. c #ACB56D",
"U. c #97C44F",
"Y. c #ABD95A",
"T. c #B2DD5D",
"R. c #B9CE6C",
"E. c #B2E060",
"W. c #C7C744",
"Q. c #D4D549",
"!. c #D3E45D",
"~. c #E7E842",
"^. c #EEED43",
"/. c #F1ED45",
"(. c #F4F344",
"). c #F9F544",
"_. c #F9F549",
"`. c #DFE57B",
"'. c #8D8781",
"]. c #948B83",
"[. c #948B84",
"{. c #998E86",
"}. c #9B9086",
"|. c #969288",
" X c #9D938A",
".X c #A1968D",
"XX c #A4988F",
"oX c #A19790",
"OX c #A69B91",
"+X c #AA9D93",
"@X c #87BF95",
"#X c #ADA096",
"$X c #AEA299",
"%X c #B0A296",
"&X c #B2A59B",
"*X c #B6A99E",
"=X c #B8AA9F",
"-X c #B7AAA0",
";X c #BAADA2",
":X c #BCAEA3",
">X c #BDAFA4",
",X c #BEB0A5",
"<X c #BFB1A8",
"1X c #C0AFA7",
"2X c #C0B2A7",
"3X c #C3B4AA",
"4X c #C6B8AE",
"5X c #C9BAAF",
"6X c #CCBCB3",
"7X c #D0BFB6",
"8X c #A8C6AE",
"9X c #DCEA80",
"0X c #CEC1B6",
"qX c #D1C0B7",
"wX c #D2C2B9",
"eX c #CECFC3",
/* pixels */
"2X,X,X,X;X&X4X#.W &X6X,X2X*X+XK.#.#.#. X6X$X+X>X,X,X,X,X,X,X,X&X}.].{.&X5X&X+X X1.#.L H.+X+X+X+X+X,X",
",X>X#X,X;X&X4X{.].].+X;X%XOX XH.#.@. X+XwX%X&X,X+X,X>X,X,X,X,X3X3X@.Q H.#.#.#.#.#.#./ P.6X4X+XOX,X,X",
",X,X>X,X>X&X>.<...Q 1.o.o.1.L.K.>.L H.+X6X%X:X,X,X,X#X,X,X,X>X*XXX@.2 Q <.<.<.<.<.P 1.+X6X&X+X>X,X,X",
",X,X,X,X:X+X#. .J K J K J J J J 2 < K.&X%X+X:X,X,X,X2X,X,X,X*XXX Xo.Q }.+X$X$X$X X~ H.OX3X%X>X,X,X,X",
">X;X>X:X#XL.#.1.$X+X{..X#X&X+X X( 2 H.wX,X>X,X,X,X,X,X,X,X;X+X X#./ X.,XwXwXwXwX*X XK.].4X2X,X,X,X,X",
",X%X-X+X<.#.{ ..>X>XXX+X;XqX7X&X X{ #.3X3X,X>X,X,X,X,X,X>X*XOX].} ( *X>X+X&X:X,X6X&X} 1.,X3X,X,X,X,X",
"-X*XOX2.#...W -X2X+X*X;X+X#X%X=X&X X} H.>X,X,X,X,X,X>X>X*XOX{.@.} 2.%X+X+X&X;X,X,X6X$X%.L.,X3X>X,X,X",
"+X+XXX#.#.} X.+XOX+X+X+X+X*X>X,X6X+X} o.*X3X X].].P.].P.<.<.#.o.o.>X:X+X*X,X,X,X;X;X&X .X.].,X3X;X=X",
"+X+X].#.X.W +X+X+X+X+X#X*X,X,X,X,X&X XI #.oXL y y y y y y y o.#.oX<XOX&X,X,X,X,X*X;X5XOXL 2.}.,X&X+X",
"{.].#.#.@...OX+X+X+X+X&X,X,X,X-X:X5X{.~ E T A ' w.w.w.w.q.A T T {  X.X*X3X3X,X,X,X,X,X&X..X.].{. X{.",
"#.#.#.@...OX+X+X+X+X&X;X,X,X,X*X;X&X~ L Y D 6.r.p.p.p.a.p.6.k f a Y O.:X,X,X,X,X,X,X,XqX+X ...].1.#.",
"~ ~ ~ Q L .XXX+X+X&X,X,X>X>X,X,X,XX.q q 0 e.p.p.p.p.p.t.p.p.p.p.G 9 s J.,X,X,X,X,X,X,X3X XK.J { ~ ~ ",
"} X...} } o.}..X+X=X,X,X:X:X,X,X<.q h 0 e r.p.p.p.p.g.u 6.p.a.a.p.p.5.s J.,X,X>X>X>X*X+XL.#.5 } ..} ",
"{.+X3X*X+X .@..X*X,X,X,X:X>X,X*X5 u 0 e 9.p.p.a.p.t.` h.e.p.a.e.S ' p.G y K.,X>X*X&X+X-XK.#.o..X3X:X",
",X+X6X4X6X'.$. X&X5X-X=X,X,X*X+X2 u + H p.p.a.a.p.p.5.@XD e.N c.b.z.q.t.w } 3X*X#X+X+X.X1.'.OX>X>X3X",
">X*X,X&X,X}.J....X*X;X;X,X=X#X+X2 u + g t.p.w.r.p.p.y.j G m k.Z.).~.A.5.i ( ;X+X+X+X].<.Q  X3X-X+X+X",
"*X,X>X=X,X;XL.X.X.#X5X,X*X+X+X-Xb u + D p.p.e.t.p.g.: $ e.v Z.).)._.m.A i W #X+X}.K.<.o.%.#X;X+X+X+X",
",X,X,X,X2X:X{.#.Q .X$X2X:X-X6X+X> t M t 8Xs * * h.eX. D m V.).).).).m.j i n H.H.<.#.#.K.XX>X#X+X+X=X",
",X,X4X,X,X2X;X].X. . XXX{.K.].1.Q - m & 2 X 4 # - J . y.z ).).).).V.N 9.i 5 #.#.#.#.Q K.+X#X<X+X=X,X",
",X,X2X,X,X2X*X].@.b P X.H.#.Q n b @ s N o 4 ;.N 5.5.H r b.)._.).).M.g k - 2 n J J J 2 H.+X+X;X;X,X,X",
",X,X,X,X,X&X2.<.1.K.K.K.]. X X].].U + s -.:.3 o $ % $ 7 n.N.N.N.v.m 6.w b ].].].].K.P H.+X4X=X3X,X,X",
",X+X2X,X;X.X#.H.oX-X;X{.{..X3XqX$XP.- &.:.3 l.k.x.x.x.C.^.^.^.N.h r.k b $X5X&X+X&X<X XW H..X-X,X,X,X",
",X:X,X*XXX<. .~ -X4X+XOX-X3X2X3X6XK &.=.3 {., G./././.).).).Q.h 6.u y &X3X#X+X&X:X,XOX[.{.{.6X2X,X,X",
",X>X+X+X X#.2..X+X+X+X%X:X,X,X,XK &.# *.# :X> G.).).).).).Q.g e.u 2 .X+X+X+X&X>X,X,X:X.XR H.}.;X>X4X",
",X+X$X6X$...E +X+X+X+X&X,X,X,X,X5     *.# 1.; l.n.n.n.n.v.a e.a @ ( ;X3X-X;X&X,X,X,X2X6XOX{.{.XXwX,X",
"5X4X#.#.@...OX-X4X+X*X,X,X,X,X,X,X>X>   > H.; W._.).).!.u y.a X Q -X,X+X+X&X,X,X,X,X>X,X.X..K.{.{.wX",
">.#.@.@. .U &X3XOX&X,X,X,X,X,X,X-X;XoX{.].- Q.(.(.(.`.9 p.5.X E *X4X+X+X&X,X,X,X&X=X,X,X6X.Xn H.].{.",
" X@.b J b E &X3X+X&X>X>X,X,X,X,X>X$X3X|., F.M.M.M.M.S.e a.H X I OXOX+X&X,X,X,X>X>X,X,X:X%X X! J 5 K.",
"$XOX$X#X Xo.+X#X&X,X=X*X,X,X>X:X&X+X+X; W._.).).).9X6 a.w.X > n 2.L.}.&X:X:X,X&X*X,X>X#XXX].L  X.X X",
"+X+X6X5X X]. X5X,X,X,X,X,X,X:X%X&X{.K.v Q.).).)./.R.9 p.8.  X X X X n  X.X&X,X>X>X;X#X$X].$./ ,X0X X",
"+X#X,X:X+XK.o.XX>X>X,X,X,X2X&X+X].<   M.~.~.~.~.I.6 p.p.8.O S ` ` S t o I +X,X,X:X#XOX:XK.X..XwX+X%X",
"#X>X,X,X>XOX{.]..X-X3X,X>X3X*XK.< u % k.V.B.B.v.i.d p.p.8.O ` ` S h S S w R OX,X*X+X+X2.#.n {.wX+X3X",
">X,X,X,X3X3X{.K.<.+X3X3X=X#XH.y a S % B.).).).u.j p.p.p.8.* s t u j ' ' F w R XX$X+X X1.../  X5X+X$X",
",X,X,X,X,X;X+X1.} ].+X3X-X+XJ 0 _ S % B.).).).[ D p.p.p.t.F = = i p.p.p.e.F : / +X.X1.@.( }.&X#X$X>X",
",X,X,X,X>X>X4X{.H.#.{.+X+X$.y s F S % b.(.).).[ g 7.p.a.p.p.p.p.p.p.p.p.p.0.: W {.1.#.$. X-X3X%X:X,X",
",X,X,X,X;X&X3XK.@.~ @.1.} - 0 S H 5.0 V W.C.C.A.N l p.a.p.p.p.p.p.p.p.p.r.D & K #.#.} K.*X3X#X=X,X,X",
"5X,X,X:X%X.X.X#.<.#.@.} < + 0 ' 9.p.w.a v.n.n.n.f.f 8.p.p.p.p.p.p.r.6.6.D s q < o.K.o.].;X#X&X>X,X,X",
"5X,X>X%XL.1.#.X.X.oX1.Y g u : G p.p.p.H f.4.x x v % 8 D D D D D D j s s s A _ * @.2X+X]. X;X3X5X,X,X",
",X>X$XL.#.#.X./ 2.1.Y H e.i.7 M s.p.p.p.p.G f p i i i F F F F F F F F F F F S * >.6XOX]...OX6X6X,X,X",
">X&XXX#.#.o.~ H.&X#.w p.f.4.^ v 4.s.p.p.p.p.j.p.p.p.p.p.p.p.p.p.p.p.p.p.r.H i.7 o.,X*X.X@.K.-X6X4X,X",
"&X+XXX#.o.! J.&X3Xo.0 p.3.]  X].v D.Y.d.p.a.a.p.p.p.p.p.p.p.p.p.p.p.a.p.s.S.V ] XX,X2X3XXX{  X*X3X,X",
"+X+X1X#.X.I $X3X&X].T f e } ,X*X].B x U.T.E.T.U.U.Y.Y.T.Y.D.T.T.T.T.Y.D.4.7 ]  X-X,X,X4XXX#.XX+X6X&X",
"K.K.].@.Q K.+X&X+X+X].) $ } ,X;X>X].o.B C C C x x c C C V z C C Z C V z ] J.oX;X:X,X,X,X.X{./ .X#X.X",
">.#.#.o.L .X+X*X*X+X+X].@. X,X,X,X,X:XP.,.X.| ..| | ..+...| +.,.,.<.<.H. X,X,X,X,X,X&X;X*X X<.}.{.{.",
"K.o.n n K }.+X4X+X+X+X$X-X;X,X,X,X&X&X X|.E ]..X{.]..XXX.X].Q  X.X$X#X-X;X,X>X&X*X,X;X>X4X.X].E @. X",
"OX X2.2.#.W  XOX+X+X%X;X,X,X,X,X,X&X#XH.E H.OX3X6X}.+X+XOX].@./ {. X&X>X,X,X,X:X:X,X>X#X].<.].]. XOX",
"+X+X6X-X].#.! +X3X+X&X,X,X,X,X,X&X+XK.>.I }.6X$XeX7XqXqXqX3X].K.].+X4X,X,X,X,X,X,X*X+XK.#.L {.+X6XwX",
"+X+X2X,X6X].#.~ .X&X<X,X,X,X6X;X+XK.#.{ ].+X+X+X#X:X2X2X2X3X6X<.~  X$X4X>X:X,X,X&X+XK.$.L K.OX7X$X#X",
"+X>X,X,X3X4X{.].#X4X,X,X,X,X&X+XK.#.#. X+X-X+X+X+X,X,X:X%X3X6XH.Q ~ &X6X,X,X,X2X&XK.$.E K.OX6X%X+X+X",
",X,X,X,X3X4X{.#.Q XX,X&X&X&X+XK.#.#.#. X+X0X#XOX>X,X,X,X;X%X=X}.#.Q {.OX,X,X&X+XK.#.#.>. X6X%X+X+X+X"
};
