/* XPM */
static char *_5fed49dbc384d15ca41b906c3b6c430CfhbK7Rl6CXlCbRr[] = {
/* columns rows colors chars-per-pixel */
"50 50 93 2 ",
"   c #373834",
".  c #3C3B37",
"X  c #3D3C39",
"o  c #433F36",
"O  c #413F3B",
"+  c #43423E",
"@  c #464542",
"#  c #494642",
"$  c #4C4A46",
"%  c #4E4C49",
"&  c #514D47",
"*  c #514E4A",
"=  c #55524E",
"-  c #59564E",
";  c #565450",
":  c #5A5651",
">  c #5D5954",
",  c #625B56",
"<  c #645E59",
"1  c #66625C",
"2  c #6A645E",
"3  c #6C6660",
"4  c #6E6963",
"5  c #736C65",
"6  c #766F68",
"7  c #77726B",
"8  c #7D746D",
"9  c #7D7670",
"0  c #7F7973",
"q  c #81776F",
"w  c #81786F",
"e  c #817770",
"r  c #847C74",
"t  c #887E76",
"y  c #867F78",
"u  c #887F78",
"i  c #8A8077",
"p  c #878079",
"a  c #8C837B",
"s  c #91877E",
"d  c #94897F",
"f  c #8F8881",
"g  c #918780",
"h  c #948B83",
"j  c #998E85",
"k  c #959085",
"l  c #9B9087",
"z  c #979088",
"x  c #9D928A",
"c  c #9E9690",
"v  c #A2968D",
"b  c #A4988E",
"n  c #A69A91",
"m  c #AA9D93",
"M  c #ADA196",
"N  c #AFA298",
"B  c #B1A297",
"V  c #B1A49B",
"C  c #B2A59A",
"Z  c #B3A69C",
"A  c #B4A59C",
"S  c #B7A89E",
"D  c #B8AA9F",
"F  c #B6A7A0",
"G  c #B7A9A0",
"H  c #B9ABA0",
"J  c #B9ACA1",
"K  c #BAACA1",
"L  c #BCAEA3",
"P  c #BAACA4",
"I  c #BDAFA4",
"U  c #BFB1A6",
"Y  c #BFB2A8",
"T  c #C0B1A7",
"R  c #C1B3A8",
"E  c #C2B4A9",
"W  c #C4B5AA",
"Q  c #C4B5AB",
"!  c #C5B6AC",
"~  c #C7B8AE",
"^  c #C8B9AE",
"/  c #CBBCAF",
"(  c #C8BBB2",
")  c #CBBCB1",
"_  c #CBBCB2",
"`  c #CCBCB2",
"'  c #CEBEB5",
"]  c #D0BFB5",
"[  c #CEC0B6",
"{  c #D0C0B7",
"}  c #D1C1B8",
"|  c #D3C3BA",
" . c #D7C9BE",
/* pixels */
"U U U U K A ( r 1 C ` U U C m a 8 8 2 j } C m U U U U U U U R T r 2 j Z / C n h e 8 $ p m m m m n U ",
"U I m U K S ! j h h m K C n v p 8 8 x m } C C L m U U U U U U W E 8 ; p 8 8 8 8 8 8 a b ' C m m I U ",
"U U U U I K j r 5 ; r 6 6 r a a 8 $ p m ( N L U U U G U U U U S b 8 X > r r w r 8 % r m W C m L U U ",
"U U U U U A 8 4 # @ @ # # @ @ @ .   p M m m L U U U U U U U D b x 6 > l m m n n 2 + p n n m K U U U ",
"I K U U I K 8 5 r m l v M C m x < X p ` K I U U U I U U U L N l 8 < 6 U ] { } K n g p h M L U U U U ",
"U m H S j 8 < 2 P P v m K ' { A x 1 r I T U U U U U U U I S n g 2 2 G U m A U U ( S > r U W U I U U ",
"H D n j 8 4 % v U m H I m m S U C x r g T U U U U U U I S m h 6 4 h C m m H T T U ) p 8 g U U H U U ",
"m m b 8 8 5 2 m m m m m M H U I ( m < 5 P T U U U A U A m M 8 5 6 I I m S U U U K L C > r j M C K D ",
"m n j 8 8 2 x C m m m m D U U I I A v $ i N W U T h S m m v 8 5 C U m C E R U U S H ^ r 4 g j H C m ",
"j h r 8 6 < m m m m m S U U U K L ( n 2 5 h I C m 8 v n j h 8 7 N m m S W W U U U U T S 4 4 h l h j ",
"8 8 8 8 2 a m m n m A L U U U H K D Z h @ 2 5 5 1 < j g 8 8 5 C U m S U U U U U U U U } n 1 4 h 8 8 ",
"> > > ; $ x n n n N I U U U U U U N m t + < 4 4 3 < 4 > > - > S ' K ! U U U U U U U U R v a @ 1 > > ",
"2 5 4 1 1 4 x b m S U U U U U U S M p 8 5 F K m m S 2 5 5 5 r m T E ~ U U U U U U I S M s 8 O 3 2 1 ",
"l m R K m 4 8 v S I U U U U U S m m p , j } I m m I b I U v g 0 m E U U U U U U D C m I a 1 5 b I l ",
"I m ! ) ( g 0 x A ^ K K U U S m m h r @ h { M m m S m ! ^ K g r v A U U U T T H M m m n r 9 v C I n ",
"K S K K T l p 4 v S L L U H M m j r > + h H M m S U D U R ) j p 4 m ^ U D H H M m m h r > j U C n m ",
"S U U K U H s 5 8 N ^ U S m m I h 8 $ 6 U M S S U U U U U I l s r x M C D C m m x s r 2 8 U K m n m ",
"U U U U T L j 8 > v G ! S H ( m t > 7 v H H I U K U U U ~ L S K g p j x b h p p r e 8 p v C m m n S ",
"U U E U U T K g 4 4 x n j s h r 8 $ p H K I U U I U U U ( U T K h 8 4 j j a 8 8 8 8 ; a m n H B D I ",
"U U T U U U H j 7 + $ 4 p 8 < $ @ X a H U U U U U U U U T U K S P g 4 % $ * $ @ @ # X a m m L L U U ",
"U U U U U C r r p h a a g z l h h = r K U I U U U ~ U U U L C M m 4 + > g h h h h p % p m R U m I U ",
"U H I U H v 8 r g K P l j v U } N g h v K U U U U T U U L m m x r 1 > x P } ( A A b a l x v L K U U ",
"U I I L b q 4 < S ! m m U ~ U R ` m - r [ E U L U U U I N m m x 8 1 , C S M M U E K v h h j ` T U U ",
"U I m m v 8 y n m m m C U U U U U b h g l ' T U U U I m m m v p 4 1 n m m m C I U U E b - p j K R I ",
"U C m N 8 4 = n m m m C U U U U U { m h l l W U U L m m m n j 8 4 2 K E n b C U U U I { n j j } E U ",
"B } 8 8 8 y n S ! M H U U U U U U I v j $ p j 8 ! } } ) m 8 8 2 > H E m m A U U U U I K v # a j j } ",
"q 8 8 8 4 * m C n C U U U U U U I I v j l + p 8 8 8 8 8 8 8 3 = S ~ m m C U U U C D U U { n f g h j ",
"h 8 + @ + * A ~ m C U U U U U U I N M x h + + + O X + & O + . > m m m C U U U U U U U L ' b @ + O h ",
"8 n M M g , m M C U K K U U U L C m m i 6 % j l a 5 c N m l + * x m m C I I U K L U L M b j = n b l ",
"m m } ` x h x ! K U U U U U L C m n b 8 $ l m m x M m M N v u > v N A U H D U U U L M N t 8 v ' ( x ",
"m M U L m a 5 v K U U U U U Z m v a q * r n D ` C U L T ) v j g j ! U U U U U I L M m K a , x R n m ",
"N U U K K n j h v K E U U Y Z m a 8 4 ; j A m m I U L U W ) n r 1 m E U U U U U Z m m r 8 ; x } m M ",
"U U I D R ! j g r n T E K C m v u 8 > h m R M M U U U U I I ~ v a h ! E U K K K N m x r > a n ! m M ",
"U U U U U K m r 4 h m ! H m m s e 3 p b m m C I U S U U L C U Z 8 2 m R U S Z M m x r 5 < l H m C U ",
"U U U U L L ! j p 0 j m M j j r 6 1 h S M m K U U B U U U U L n 8 8 r v m b x j j r 8 5 l H ~ A I U ",
"U U U U K C U a 8 > 8 a r 8 8 2 = p N U M C L U U U U U U L C x 8 1 % 8 r 8 8 8 8 8 2 h G R M L U U ",
"^ U U L C m x 8 6 1 8 s s s s 6 @ r C M C E H U U U A U I S m x 8 1 $ 8 s s s s s s < s I M m L U U ",
"^ U I M d a 8 6 < p n Z R T M l 8 5 h P U ! D U U U C I Z M m x 5 > 0 m m S R T T A a 6 h H H T U U ",
"U I M a 8 8 6 , r m n C W ( K M v 8 a Z ! T U U U U U L m m b p > > m C m A I I W U n 8 1 n ^ E U U ",
"U C b 8 8 6 : 0 Z H m m M H U U m x g j M m L U U U C C m b a 5 @ > m M m n n N K U U b 8 h H I C U ",
"C m b 8 6 > p m R A m m N K U U U n g 3 a j ( U U C m m n p 6 $ % h H m m m N K U U W N l 1 x ( D L ",
"m m R 8 5 * Z ! Z m m m A U U S L U v 0 ; s M ' { n x x x 8 4 $ h R K Z m N K A H U U E b 8 v S R N ",
"i a h 8 6 a N H m m m m A U U K L R b j # y j M M x j j h 6 - g M C M M C K U K K U U E b j x m n x ",
"8 8 8 6 * v N E U m m C K U U U U U C x r ; * % * * 8 j a + $ x v m m C K U U U U U C K v j y x j j ",
"& # # + # l m ( N m m C U U U U U S A x k @ r a i r l n v 8 % j x m N L U U U A D U K K m l g * & > ",
"h h u u 8 ; x n m m C L U U U U U C m a & p n C ) j m m n j u a v C M U U U R U I U K U g r m h h j ",
"n m ` x h 8 : m ! m C U U U U U C m a q o j ] m  .] { { } ~ j h l N ) U U U U U U A m s q % l n ] } ",
"m m T U ^ h 8 > b M H U U U K C m a q 5 h n C N M L T T T U C r > l m I U U U U C m a 0 % a n ' M M ",
"m I U U W ^ h h m W U U U U C m a 8 8 x m S m m m U U L M E ( r . > C ` U U U C m a 8 # p n ' C m n ",
"U U U U R E l 0 : m U C C H m s e 8 8 x m [ M n I U U U K M S j 8 ; l m U U C n a 8 8 l m ` C m m m "
};
