/* XPM */
static char *_dba9df3e8af4d03ed593bf41ee31d8bavsJnjf2BRg9xQGx[] = {
/* columns rows colors chars-per-pixel */
"50 50 202 2 ",
"   c #010000",
".  c #0B0503",
"X  c #150705",
"o  c #150E0B",
"O  c #17100D",
"+  c #19110D",
"@  c #1F190F",
"#  c #1C1311",
"$  c #181614",
"%  c #221807",
"&  c #24190C",
"*  c #331200",
"=  c #231611",
"-  c #251913",
";  c #2C1B14",
":  c #221F1E",
">  c #2D1D18",
",  c #301E18",
"<  c #3A2605",
"1  c #2D2117",
"2  c #392917",
"3  c #36221C",
"4  c #3C261E",
"5  c #2D2621",
"6  c #2E2C29",
"7  c #382D27",
"8  c #34312E",
"9  c #39332E",
"0  c #3A3734",
"q  c #4E3103",
"w  c #422A1E",
"e  c #4A2E1D",
"r  c #40301B",
"t  c #472E26",
"y  c #492E25",
"u  c #402928",
"i  c #463328",
"p  c #4C322B",
"a  c #543927",
"s  c #53352A",
"d  c #5A392B",
"f  c #433D35",
"g  c #4A3932",
"h  c #413D39",
"j  c #573A35",
"k  c #643F34",
"l  c #574203",
"z  c #6F480C",
"x  c #7F4C00",
"c  c #5D4425",
"v  c #5C4329",
"b  c #484130",
"n  c #43413D",
"m  c #49433E",
"M  c #5C433A",
"N  c #694B2B",
"B  c #64542A",
"V  c #6F532F",
"C  c #6B4235",
"Z  c #6B463A",
"A  c #6E4B3C",
"S  c #734737",
"D  c #734935",
"F  c #734739",
"G  c #734839",
"H  c #784D3B",
"J  c #6D5631",
"K  c #755333",
"L  c #7D533B",
"P  c #736334",
"I  c #464441",
"U  c #494542",
"Y  c #4E4944",
"T  c #4E4D48",
"R  c #524B46",
"E  c #524E4A",
"W  c #5C5347",
"Q  c #55514C",
"!  c #5A534E",
"~  c #5A5651",
"^  c #5E5953",
"/  c #764F41",
"(  c #6E504B",
")  c #755445",
"_  c #795546",
"`  c #725748",
"'  c #795548",
"]  c #625B55",
"[  c #655F59",
"{  c #66625B",
"}  c #69635D",
"|  c #6D6661",
" . c #6E6963",
".. c #746C65",
"X. c #766F68",
"o. c #786F68",
"O. c #7A7068",
"+. c #7D746D",
"@. c #7E7671",
"#. c #965A06",
"$. c #9E5E00",
"%. c #927005",
"&. c #835C38",
"*. c #8A5E3E",
"=. c #8D653E",
"-. c #836C3F",
";. c #97683A",
":. c #996F3D",
">. c #98703E",
",. c #A36E25",
"<. c #AF6E23",
"1. c #CB7A0B",
"2. c #D47F12",
"3. c #845B43",
"4. c #805352",
"5. c #8A5958",
"6. c #B3595B",
"7. c #8A6842",
"8. c #966C43",
"9. c #897242",
"0. c #937051",
"q. c #A07B47",
"w. c #81786F",
"e. c #847B74",
"r. c #887E76",
"t. c #877F78",
"y. c #AE716C",
"u. c #B87B76",
"i. c #CE7775",
"p. c #E47373",
"a. c #DD8607",
"s. c #C48A19",
"d. c #D78514",
"f. c #E98A03",
"g. c #E58D0C",
"h. c #E98F0D",
"j. c #F29105",
"k. c #FF9700",
"l. c #FE9801",
"z. c #F29009",
"x. c #E08C12",
"c. c #F49916",
"v. c #F39919",
"b. c #C48024",
"n. c #EE9132",
"m. c #F4993D",
"M. c #F9993B",
"N. c #FEC10F",
"B. c #9E8349",
"V. c #A18C4D",
"C. c #A98F5E",
"Z. c #878079",
"A. c #8C837B",
"S. c #91877E",
"D. c #91887F",
"F. c #BA9A67",
"G. c #BCA56A",
"H. c #C0A06B",
"J. c #C6AA74",
"K. c #CCB27B",
"L. c #948B82",
"P. c #958B84",
"I. c #998E86",
"U. c #9A9087",
"Y. c #979088",
"T. c #9D938A",
"R. c #B98581",
"E. c #A2968D",
"W. c #A4988F",
"Q. c #A69A91",
"!. c #A99D93",
"~. c #AEA196",
"^. c #AFA298",
"/. c #B0A297",
"(. c #B2A49A",
"). c #B6A99E",
"_. c #B8AA9F",
"`. c #B6AAA0",
"'. c #BAADA2",
"]. c #BBADA3",
"[. c #BDAFA4",
"{. c #BEB1A6",
"}. c #BFB1A8",
"|. c #D78F8B",
" X c #E68A8A",
".X c #E29392",
"XX c #ED9A9A",
"oX c #CFBB8A",
"OX c #D0BB8A",
"+X c #C0B2A7",
"@X c #C3B4AA",
"#X c #C7B8AE",
"$X c #C9B9AE",
"%X c #CBBCB2",
"&X c #D0BFB6",
"*X c #DEC78E",
"=X c #E5CF98",
"-X c #E3D09B",
";X c #ECD79E",
":X c #D0C1B7",
">X c #D2C2B9",
",X c #EDDAA0",
/* pixels */
"{.{.{.{.'.).%Xe.{ (.%X{.{.(.!.A.+.@.:                                 ! %X(.Q.L.e.+.Y Z.!.!.!.!.!.{.",
"{.[.!.{.'.).@XI.I.P.!.'.(.Q.E.e.X.X.:                 . . . . .       8 +.+.+.+.+.+.A.W.%X(.!.!.[.{.",
"{.{.[.{.[.'.I.e...~ e...X.e.A.8     3 y y y y y y y y D D D D D s     8 e.e.w.e.O.T e.!.@X(.!.'.{.{.",
"{.{.{.{.{.(.+.| Y I I U Y I I $     4 p y y p p p p s G G H H H s     n !.!.E.Q.{ n Z.Q.Q.!.'.{.{.{.",
"[.'.{.{.[.'.+...e.!.I.E.~.(.!.0     s Z p y Z Z Z Z F G H 8.8.8.N     ! %X>X>X'.Q.L.e.L.~.'.{.{.{.{.",
"{.!.'.).I.O.[ | [.'.E.!.'.%X:XY     s S p y Z G G G G F H :.:.:.N     m !.).{.+X%X).^ e.{.@X{.[.{.{.",
"'._.Q.I.+.| Y T.{.!.'.[.!.S.e.f # & d S d s S G L L L L &.:.;.&.c     m !.'.+X+X{.%Xe.+.L.{.{.'.{.{.",
"!.!.W.+.+...} ~.!.!.!.!.~.R   y G G G G G G G G 8.:.:.:.:.:.&.4 ;     U ).{.{.{.'.'.(.~ e.I.~.(.'._.",
"!.Q.U.+.O.} A.O.| | | | o.0   4 k k k k k k G H 7.=.=.=.=.7.&.d w     8 +.+.+.+...E.%Xe. .L.I.).(.!.",
"I.P.e.+...^ +.                > y y y y y y ) ' ' ' ' ' ' ' 3.:.N                 +.{.). . .L.I.L.I.",
"+.+.+.O.~ n R , , > , > , , , y d d d d d d H / / / / / / / _ *.K 2 r r r r r r r W } +.L.}  .P.+.+.",
"^ ^ ^ ! 8   + G G G G G G G G G S S S S S S G G G G G G G G G G L 8.>.>.>.>.>.>.>.2     X.A.I { ^ ^ ",
"} .. .} Q   o s s s s s s s s s s s s s s s s s s s s s s s s s d V V V V V V V V -     } +.h | } } ",
"I.!.@X'.A.  . O + O + + + + + + + + O + O O + O + O + O O O O O + @ = @ = = = = @ .     ] } ..W.[.U.",
"'.!.@X%X!.                                                                              ] e.W.).[.W.",
"'.).'.'.).] R 8 ] { ..h   - y y y y y y c c c c $.$.$.$.#.c c c c c c 2   0 | { } { Q Y E I.@X).Q.!.",
").{.{.'.{.'.S.X.+.^.$X[   4 G G G G G G ;.>.>.>.k.k.k.k.z.>.:.:.:.:.>.c   ! !.!.W.L.e.} +.[.'.!.Q.!.",
"{.{.{.{.+X'.I.+.^ E.'.|   4 G <.2.2.2.2.d.x.x.x.k.k.k.k.k.x.d.:.:.:.:.c   n Z.Z.r.e.+.Z.E.(.!.!.Q.).",
"{.{.@X{.{.+X'.L. . .E.~   4 G 1.k.k.k.k.k.k.k.k.k.k.k.k.k.k.g.:.:.:.>.c   0 +.+.+.+.~ A.!.Q.(.~._.{.",
"{.{.{.{.{.{.'.I.O.n T ' 6.i.|.n.k.c.z < a.k.k.k.k.k.j.< q k.l.g.d.:.:.<.1.z $ 8 I I 0 Z.!.!._.'.{.{.",
"{.{.{.{.{.(.r.e.t.L.A.u.p. XXXM.k.v.<   1.k.k.k.k.k.j.  % k.k.k.g.:.:.b.k.x   Q L.Z.T Z.!.{.{.~.[.{.",
"{.'.[.{.'.E.+.+.Z.).'.R.i. XXXM.k.c.q . 1.v.v.v.v.v.x.. * k.k.k.g.,.,.s.k.x   } {.W.A.U.T.W.'.'.{.{.",
"{.{.[.[.W.w...[ (.@X!.] o 5.XXM.k.k.f.f.;.3.3.3.3.3.*.f.f.k.k.k.k.j.j.l.k.x   ..@X'.W.A.I.I.%X+X{.{.",
"{.[.!.!.E.+.e.T.!.!.!.!   4.XXM.k.k.k.k.=.' ' ' ' ' 3.k.k.k.k.k.k.l.k.k.k.x   | +X{.$XQ.] A.I.'.{.[.",
"{.{.!.E.+. .Q Q.!.!.!.!   4.XXM.k.c.;._ +           . _ =.k.k.k.d.L ' i   R ~.'.{.{.{.:XQ.I.Y.>X+X{.",
"W.>X+.+.+.t.T.).@X!.).{   4.XXm.l.v.;._ +           X ' *.k.k.k.d.L ' t   ^ {.{.{.{.[.'.E.m A.I.I.>X",
"w.+.O.O.| T !.~.Q.(.{.[   4 G u.XXXX0.' g.k.k.k.k.k.j.' *.k.g.' ' ' ' t   ^ {.{.(._.{.{.>XQ.I.L.L.I.",
"L.@.n I n E ).#X!.(.{.[   3 C y..X.X0.' d.j.z.j.z.z.h.' *.j.d.' ) / A 7   ^ {.{.{.{.{.'.%XQ.I n n P.",
"] !.~.~.P.] !.~.(.{.'.[       p ' ' ' ) ' _ ' ' ' ' ` ' ) ' ' ' j         ^ {.'.[.{.'.~.Q.I.E W.E.P.",
"!.!.:X%XI.P.T.#X'.{.{.[       p ' ' ' ' ' ' ' ' ' ' ' ' ' ' ' ' j         ^ {.{.{.'.(.^.r.+.E.#X%XT.",
"!.~.{.'.W.Z.{ E.'.+X+XO.5 5 5 g M M M M M M M M M M M M M M M M g 1 5 5 5 ..{.[.'.^.~.{.A.} T.@XQ.!.",
"(.{.+X_.'.Q.Y.U.W.{.#X{.{.{.(.h                                 6 !.@X{.{.{.{.{.).!.!.e.O.Q T.:X!.^.",
"+X{.'./.@X@XI.L.e.W.'.@X'.L...9 o o ; 1 i b b b b b f o O = = = 7 +.D.T.{.'.'.'.^.!.T.e.{ +.W.@X!.~.",
"{.{.{.{.{.'.!.e. .I.!.@X'.Y   > y e &.:.*X,X,X;X,X,X-Xy p G D S s     R {.).(.~.!.T.e...[ U.'.!.(.{.",
"{.{.{.{.[.[.#XI.A.e.I.L.o.0 + - > ; N K G.K.;X;X,X,X-Xt p G C y w ; ; g ..A.T.I.I.e.+.o.T.'.#X(.+X{.",
"{.{.{.{.'.(.[.A.+.] +.Y   - y #     3 y =.>.=X;X,X,X-Xt p G d   = G G w   0 +.+.+.+.{ L.'.@X!.'.@X{.",
"{.{.{.'.(.!.T.+...[ +.Y   - y #     3 y C.H.J.J.,X,X-Xy p G d   = G G w   U S.S.S.S.Q A.{.~.~.'.{.{.",
"{.{.'.~.S.A.+...[ e.Q.!   - y #     3 y OX,Xq.>.;X,X-Xy p G d   = G G t   ~ [.+X@X(.w...I.'.[.@X{.{.",
"{.[.(.S.+.+...] t.!.!.!   - y +     3 y oX,Xq.>.;X,X=Xy p G d   = D D w   ! '.{.@X'.E.O.{ !.$X@X{.{.",
"{.(.W.w.+...Q  .(.[.!.!   j y.u     3 y oX,XK.K.F.F.F.y p G d   < s.s.z   E Q.(.'.{.{.W.O.L.`.[.(.{.",
"(.!.W.+.X.~ @.E.@X).!.~   4.XXj     3 y oX,X,X,X>.:.;.y p D d   q N.N.%.  E ^.'.{.{.@X!.U.} T.%X).'.",
"Q.!.@X+...E ^.@X(.!.!.A.X.( j #     3 t C.G.G.G.B.B.B.-.9.9.9.J B l l B | D.'.).'.{.{.@XE.+.E.).[.(.",
"A.Z.P.+.O.A.^.'.!.!.!.!.(.!         3 y 9.V.V.V.V.V.V.V.V.V.V.V.P     m (.'.{.'.'.{.{.@XW.I.Q.!.Q.T.",
"w.+.+.o.Q E.~.[.).!.!.(.'.W.A.8     J 9.B.V.V.V.V.V.V.V.V.V.V.V.P     Y '.{.{.{.{.{.(.'.E.I.Z.I.I.I.",
"m U U I Y U.!.%X~.!.!.(.{.{.{.I     P V.V.V.V.V.V.V.V.V.V.V.V.V.P     R {.{.{.(._.{.'.[.`.T.L.Q Y Y ",
"L.L.r.t.+.^ T.Q.!.!.(.'.{.{.[.I     w a K L ; % % % & a v L N % b U.D.~.{.{.{.[.'.{.[.).L.e.P.L.L.L.",
"}.!.%XL.L.+.^ !.@X!.(.{.{.{.{.I     3 y C S .         y p D d   6 (.%X{.{.{.{.{.{.'.~.A.+.Y I.!.&X>X",
"!.~.{.{.$XI.+.] E.!.).[.{.{.(.h     3 i C G .       . i p F s   6 U.!.'.{.{.{.{.).!.A.@.Y A.Q.&X(.~.",
"!.[.{.{.@X@XS.e.Q.{.{.{.{.{.(.h         . . A.T.T.(.!.    .     O ^ (.%X{.{.{.~.Q.A.+.T A.Q.%X(.!.Q.",
"{.{.{.{.@X%XI.+.^ !.{.(.(.[.(.h             I.Q.[.{.(.          O ~ I.!.[.{.(.!.S.+.+.L.Q.&X(.!.!.!."
};
