/* XPM */
static char *_192d7a7ff6642c4f8694621ec78e4a1cH3f1T5Du00Rjo9c[] = {
/* columns rows colors chars-per-pixel */
"50 50 189 2 ",
"   c #3E5212",
".  c #404C16",
"X  c #42471C",
"o  c #42491C",
"O  c #425415",
"+  c #48591A",
"@  c #4B5C1C",
"#  c #4A6312",
"$  c #4C621A",
"%  c #4E6A1B",
"&  c #506E17",
"*  c #536C1C",
"=  c #537119",
"-  c #464521",
";  c #504F2D",
":  c #4F5225",
">  c #4E5A21",
",  c #525B24",
"<  c #585F26",
"1  c #525329",
"2  c #565D2B",
"3  c #595F2B",
"4  c #524C30",
"5  c #574D3A",
"6  c #594E3D",
"7  c #535530",
"8  c #595336",
"9  c #5A5E34",
"0  c #595239",
"q  c #5D5C38",
"w  c #625D3E",
"e  c #4F6125",
"r  c #536423",
"t  c #556B23",
"y  c #596D26",
"u  c #566329",
"i  c #5B632C",
"p  c #5D6B2C",
"a  c #5E7524",
"s  c #5E7228",
"d  c #576330",
"f  c #5D6333",
"g  c #5F6C32",
"h  c #606B2E",
"j  c #607625",
"k  c #62712D",
"l  c #667B2E",
"z  c #6A792D",
"x  c #616634",
"c  c #636B32",
"v  c #616538",
"b  c #646A3A",
"n  c #686C3C",
"m  c #647432",
"M  c #697435",
"N  c #667A32",
"B  c #6D7C36",
"V  c #6B733C",
"C  c #6E7C39",
"Z  c #70733E",
"A  c #727E3B",
"S  c #5B4D40",
"D  c #5F5044",
"F  c #665E45",
"G  c #65574B",
"H  c #675E4B",
"J  c #695C4E",
"K  c #6D5F52",
"L  c #646242",
"P  c #6A6643",
"I  c #676E41",
"U  c #6B6C43",
"Y  c #6E6B4A",
"T  c #716B4C",
"R  c #6D7543",
"E  c #6E7B41",
"W  c #6E7149",
"Q  c #6F7948",
"!  c #717445",
"~  c #757D43",
"^  c #73744B",
"/  c #747A4A",
"(  c #797D4C",
")  c #6E6253",
"_  c #706455",
"`  c #756D54",
"'  c #736559",
"]  c #766A59",
"[  c #7A6D5D",
"{  c #767552",
"}  c #797355",
"|  c #777951",
" . c #7B7B54",
".. c #7C725E",
"X. c #7E7B59",
"o. c #7C6E61",
"O. c #7E7161",
"+. c #807C57",
"@. c #827D5C",
"#. c #827565",
"$. c #837B64",
"%. c #827768",
"&. c #877A69",
"*. c #8A7D6D",
"=. c #8D7F70",
"-. c #74892D",
";. c #708036",
":. c #74813D",
">. c #79853D",
",. c #73883B",
"<. c #7A9131",
"1. c #768342",
"2. c #7A8544",
"3. c #778E42",
"4. c #7D8A44",
"5. c #75824A",
"6. c #7D844B",
"7. c #7D894A",
"8. c #7D8352",
"9. c #7E845C",
"0. c #808E42",
"q. c #81864E",
"w. c #81894E",
"e. c #819247",
"r. c #818354",
"t. c #838954",
"y. c #84835C",
"u. c #88875E",
"i. c #86895C",
"p. c #898B5C",
"a. c #8A9950",
"s. c #969E5B",
"d. c #8FA04D",
"f. c #93A552",
"g. c #868263",
"h. c #898465",
"j. c #868A60",
"k. c #8C8B64",
"l. c #8C836C",
"z. c #8E8A6A",
"x. c #90866F",
"c. c #928D6D",
"v. c #8D9767",
"b. c #909067",
"n. c #959866",
"m. c #989A67",
"M. c #93916B",
"N. c #9A9C6A",
"B. c #8E8171",
"V. c #8B8B70",
"C. c #928575",
"Z. c #948B74",
"A. c #998E77",
"S. c #948778",
"D. c #968B7A",
"F. c #9C8F7E",
"G. c #969274",
"H. c #999375",
"J. c #96917B",
"K. c #9D917E",
"L. c #9A987A",
"P. c #A29C7B",
"I. c #9FAF62",
"U. c #A7AF77",
"Y. c #9D8E81",
"T. c #9D9180",
"R. c #9E9282",
"E. c #9D9981",
"W. c #A09382",
"Q. c #A19585",
"!. c #A29484",
"~. c #A29685",
"^. c #A29686",
"/. c #A49A85",
"(. c #A29589",
"). c #A59A89",
"_. c #AA9E8B",
"`. c #ADA38D",
"'. c #AFAD88",
"]. c #B2AA8F",
"[. c #B1B38A",
"{. c #ADA290",
"}. c #B1A692",
"|. c #B5AB94",
" X c #B8B094",
".X c #BCBD97",
"XX c #BEB59C",
"oX c #C0B59F",
"OX c #C2B9A3",
/* pixels */
"F.F.F.Z.-.B j z ! T.F.F.K.F.F.F.F.Q.T.Q.Q.P A A A u 2 2 3 3 2 3 c :.;.A j.K.F.F.F.F.F.F.F.F.W.[ F.F.",
"D.;.y.A ~ a B @ i , ^ T.T.Q.Q.Q.Q.W.Q.Q.O.` A A A u 1.4.a.v i v { t.H.T.W.F.F.F.F.F.F.F.F.F.T.O.).T.",
"f f i v c 4.f.I..X`.l.] G #.Q.Q.Q.Q.Q.Q.y.4.2.1.i h >.K.K.[ ..[ } t.K.F.F.F.F.F.T.T.K.K.K.T.T.&.O.[ ",
"Q.G.2.b Z.P F.z.8.F.T.}.K.B.T.F.F.F.F.F.Y.Q.1.j.2.f :.F.F.K.D.] [ *.Q.K.K.K.K.T.T.Q.Q.Q.Q.Q._.#.T.Q.",
"F.F.u.k.S. .Z.A.A.F.F.`.K.B.T.F.F.F.F.F.T.K.6.A.Y.2 ~ F.F.K.F.[ O.C.Q.Q.Q.Q.Q.T.T.L.G.H.Q.Q.F.Q.K.F.",
"F.K.L.D.Z.( / c.F.F.F.`.S.O.D.H.F.F.F.F.F.K.Q.K.T.v y.F.F.K.F.O.B.Q.Q.Q.Q.F.*.#.$.k.L.t.G.L.] T.F.F.",
"F.K.K.%.F.F.F.F.F.F.F.).&.G X.p.k.c.k.h.A.W.H.L.Q.i Q.T.T.T.C.&.K.F.F.K.K.K.T.T.F.F.K.j.k.H.v K.F.F.",
"F.F.T...F.K.F.F.K.K.T.T.O.5 2 r y M y * X.g.M i.g., h.Z.Z.c.} &.A.S.S.S.C.C.S.B.B.C.S.+.M +.i K.F.F.",
"F.F.F...F.F.F.F.K.W.W.T...; > r y V p p c x u p @ r f  .r.r.y.A.S.C.*.&.%.%.%.%.#.l.} q x W c K.F.F.",
"F.F.D.O.T.T.T.T.Q.Q.T.Q.X.7 q p N c.5.2.u.u.1.t.( u.[ T.F.Q.F.F.F.K.T.F.F.F.F.F.S.P.R b r.K.8.K.F.F.",
"F.F.D.O.Q.Q.Q.Q.T.C.C.B._ 0 L  .Z.H.F.M.L.K.6.A.F.Q.[ Q.K.Q.F.F.F.F.F.F.F.F.K.K.F.k.b y.H.K.c.B.F.F.",
"F.F.D.O.T.T.T.K.x.$.&.&.[ T { C.K.F.F.G.H.F.p.F.F.Q.K F.T.Q.T.T.F.F.F.F.F.T.z.z.F.Q.U h.K.F.F.[ A.F.",
"F.F.F.[ C.T.F.F.Z.Z.K.Q.z.V y.F.F.F.F.z.A.F.H.F.F.Q.D &.Q.Q.Q.T.F.F.F.F.F.K./  .h.8.x h.K.F.F.#.F.K.",
"W.T.T.[ C.F.C.*.&.$.y.h./ | Z.W.T.K.F.c.A.F.K.Q.T.Q.D O.Q.Q.Q.T.T.T.E.l.W j.R R y.m v $.S.W.l.O.Q.Q.",
"*.*.*.o.F.F.S.B.=.@. .g.X.#.*.B.*.&.&.%.&.&.B.).|.|.H.).}.*.*.C.Q.F.C.i.y u e > v 2 9 L Y  .[ ] *.*.",
"C.C.C.C.T.T./.`.|.].`.K.O.&.S.S.C.B.C.C.C.C.S.T._.`.`.`.`.Q.#.[ B.F.Z.L.k.f . X o U $.g.g.g.B.C.C.C.",
"T.T.T.Q.T.Q.|._.`._._.E.&.B.Q.W.K.F.Q.k.i.G.Q.K.F.F.W.K.T.`./.] #.T.K.K.K.^ o - 2 ^ Z.T.T.Q.T.T.T.Q.",
"Q.F.K.Q.F.T.).T.K.F.F.K.*.B.T.j.c.F.p.M.c.H.T.F.F.Q.K.F.F.).|.] #.K.F.F.F.Z.L 3 A i.Z.F.T.T.F.F.F.Q.",
"T.F.A.j.T.F.F.K.F.F.F.T.l.B.T.Z.A.F.p.H.F.F.F.F.F.T.F.F.F.Q. XC.D.F.F.F.K.L.^ b 1.k.F.T.K.F.F.F.F.Q.",
"F.F.A.6.Y.F.F.F.F.F.T.T.*.l.K.K.F.Q.G.H.F.F.F.F.F.F.F.F.F.).XXS.*.F.F.K.T.8.u  .i.c.F.K.F.F.F.F.F.Q.",
"K.F.A.4.Y.F.F.F.F.T.W.K.*.X.c.F.i.4.Z.F.F.F.T.F.F.F.F.F.T._.oXC.#.F.F.g.X./ # ~ E h.Q.Q.Q.Q.Q.Q.Q.Q.",
"F.F.A.w.F.F.F.F.K.Q.Q.Q.B.| k.F.r.A c.F.F.W.F.F.F.F.F.F.F.Q.}.C.&.Q.i.* / Q O R G.Q.T.K.K.K.K.Q.(.Q.",
"T.j.g.6.W.F.T.E.F.K.T.Q.&.&.T.K.q.A ~ Z.E.K.F.Q.Q.(.(.(.Q.Q.T.` U k.2.:.>.:.g 9.L.Q.Q.T.F.F.F.T.Q.<.",
"* 1.2.b /.Q.).).K.T.C.) 0 $.Q.K.H.6.p.6.:.~ ~ >.Q.Q.2.6.(.Q.F...i.K.A.p.l z h ^ K.Q.Q.(.t.>.2.k.y & ",
"  + # * d f Y [ ] J D S 5 { H.r.A A >.;.Z.Y.:.L.F.Q.A.p.6.6.D.#.L.F.F.F.i.m > , M 1.2.~ M i 9 2 u   ",
"  u M.T.K.T.K.F.F.F.T.k.2.1.p.w.A :.4.1.Z.F.F.Q.).F.F.K.M.A ~ #.F.F.F.H.i.c @ V G.T.F.F.F.A.x r.1.3 ",
"O % F.F.F.F.F.F.F.F.F.i.:.M p l N B G.y.Z.F.F.Q.A.F.F.S.A ;.1. .F.F.F.W.Q.G.I  .T.F.F.F.F.F.b S.1.3 ",
"3 E.K.F.F.F.F.F.F.z.8.q.B r $ = l ;.G.c.A.D.Z.T.k A.H.Z.A :.A n F.F.W.W.F.*.9 { F.F.F.F.F.K.6.Q.1.3 ",
"3 M.(.T.K.K.K.K.K.k.A B k @ $ & & l 8.y.Z.R * 8.v.A 6.B s A M U F.F.F.g.8.A.^ X.F.A.F.F.F.T.Q.K.1.3 ",
"3 r.Z.Z.S.F.F.F.A.b.7.k r > @ r r y m z.+.C.t M = a 3.,.A x A 8.T.F.Z.Z.H.F. .@.Z.( g.x.x.Z.Z.Z.:.3 ",
"b n n U Y #.O.] [ F.OXQ.H.y.g.n.6./ U {  .0 8 1 m s.a.e./ ..$.Z.Q.Z.j.r.F.F.&.[ Y x p p f f } n x n ",
"Y.Q.Q.Q.Q.Q.F.[ B.Q._.Q.C.K.$.l.J.j.w.q.d.: A t.5.F.A ~ F.T.{.OXG.g.K.F.F.F.&.&.F.i.>.7.1.y.F.L.M.Q.",
"F.F.F.F.T.Q.S.O.Q.T.F.F.F.F.F.F.K.F.F.F.N.1 A H.9.F.4.y.F.K._.XXQ.F.F.F.F.K.*.B.T.z.j.Z.6.c.Q.Q.F.T.",
"F.F.F.K.F.K.B._ Q.K.F.F.F.K.F.K.T.K.F.F.F.9 :.A.V.F.c.F.F.F.).}.C.T.T.T.T.T.*.*.F.T.T.F.6.M.Q.Q.K.F.",
"F.F.F.F.F.K.B.' T.Z.F.F.F.K.K.K.K.F.F.F.K.x C A.J.F.F.K.F.K.Q.A.) Q.T.E.Q.Q.*.*.F.F.F.F.r.c.Q.Q.F.F.",
"F.K.F.F.F.K.C.' Z.y.F.F.F.F.K.K.F.F.F.F.Q.x 8.F.K.F.T.T.F.K.T.[ _ Q.F.Z.z.H.*.B.K.F.F.F.r.z.Q.Q.K.F.",
"Q.Q.T.T.T.T.C.J { i.c.c.A.A.F.F.F.F.K.K.Q.x y.H.K.F.T.F.F.K.Q.#.J l.k. .V ( { l.W.F.k.Z.6.6.L.Q.F.F.",
"Q.T.T.T.Q.T...4 x w.7.p.b.c.T.T.T.c.H.W.Z.v r.H.F.F.F.F.F.K.).A.D F x h i c M p.N.m.~ ^ V c  .k.F.T.",
"T.F.F.F.Q.Z.7 - 2 c n ! ! ^ $.&.X.Z ^  .Y P Z.F.F.F.F.F.F.K.Q.*.6 7 c V ^ y.t.e.>.0.c 2 A h L k.Q.Q.",
"T.F.K.W.T.Z.9 ; $ b $.$.$.$.l...X.@.@.@.M...T.F.F.F.F.F.F.K.Q.l.w M 6.k.Z.H.Z.k.+.u.n { M.y.L.).Q.Q.",
"T.F.F.T.K.D.) H y.k.T.T.T.T.T.&.S.T.T.i.P.} F.F.F.F.F.F.F.K.Q.l.U >.r.K.H.F.F.K.K.K.U h.K.E.XX_.K.Q.",
"F.F.F.F.K.D._ _ T.F.F.F.F.K.K.S.T.K.F.6.6.x S.F.F.F.F.F.F.K.Q.g.U j.y.F.F.F.F.K.K.F.( c.F.T.XX).Q.Q.",
"T.F.F.F.T.S.G o.Q.F.F.F.F.F.F.T.B.S.i.:.:.i U A.F.F.F.F.F.K.Q.h.^ L.Z.F.F.F.K.J.H.F.H.A.Q.K.XX*.&.Q.",
"#.#.[ K K K G ' Q.F.F.F.F.F.F.Q.$.T / :.c 3 < A.F.F.F.F.F.T.Q.l.b k.F.F.F.F.K.c.Z.F.Q.Q.W.F.|.O.] #.",
"S.S.C.B.B.B.C.B.=.Q.Q.C.#.C.Q.).`.'.[.U.( U g.F.K.F.F.F.F.K.Q.g.c t.F.F.F.F.F.A.A.F.).Q.K.F.).[ S.S.",
"F.F.F.F.F.F.F.C.&.Q.T._.).A.K.K.).)././.].#.T.F.F.F.F.F.K.Q.Q.g.c t.K.K.F.F.F.G.H.F.Q.T.F.F.T.[ F.F.",
"F.F.K.Q.F.F.F.C.&.Q.F.T.T.F.F.F.K.F.F.Q.).O.T.F.F.F.F.Y.Q.Z.t.l.c t.F.F.F.F.F.F.F.F.Q.T.F.F.Q.[ A.F.",
"F.F.Q.K.Q.F.F.C.&.Q.F.F.F.F.F.F.F.F.F.Q.(.O.E.K.F.F.F.Q.Y.l.c / h t.F.F.F.F.F.T.T.F.Q.T.F.F.).O.F.F.",
"F.).F.K.Q.F.F.g.^ Q.F.F.F.Q.W.F.F.F.F.Q.Q...%.W.(.(.T.G.:.@ * t c t.T.F.F.F.T.T.F.F.Q.T.F.F.Q.O.F.F.",
"F.F.F.K.Q.Z.r.g.W Q.F.F.Q.Q.F.F.F.F.F.Q.Q.O.f 3 3 3 3 3 , O , O p t.K.F.F.F.F.F.F.F.T.K.F.F.Q.O.F.F."
};
